<svg width="31" height="23" viewBox="0 0 31 23" fill="none" xmlns="http://www.w3.org/2000/svg">
<path d="M14.3699 21.3407C14.1509 21.3407 13.941 21.2534 13.7862 21.0982C13.6314 20.9429 13.5444 20.7324 13.5444 20.5128H11.8936C11.8936 21.1715 12.1545 21.8032 12.6189 22.2689C13.0832 22.7347 13.7131 22.9963 14.3699 22.9963C15.0266 22.9963 15.6565 22.7347 16.1209 22.2689C16.5853 21.8032 16.8462 21.1715 16.8462 20.5128H15.1953C15.1953 20.7324 15.1083 20.9429 14.9535 21.0982C14.7987 21.2534 14.5888 21.3407 14.3699 21.3407Z" fill="#111111"/>
<path d="M8.5612 21.3407C8.34228 21.3407 8.13233 21.2534 7.97753 21.0982C7.82273 20.9429 7.73576 20.7324 7.73576 20.5128H6.07715C6.07715 20.8394 6.14129 21.1629 6.26592 21.4646C6.39055 21.7664 6.57322 22.0405 6.8035 22.2715C7.03378 22.5025 7.30717 22.6857 7.60805 22.8106C7.90893 22.9356 8.23141 23 8.55707 23C8.88274 23 9.20522 22.9356 9.5061 22.8106C9.80698 22.6857 10.0804 22.5025 10.3106 22.2715C10.5409 22.0405 10.7236 21.7664 10.8482 21.4646C10.9729 21.1629 11.037 20.8394 11.037 20.5128H9.38612C9.38612 20.7323 9.29923 20.9428 9.14454 21.098C8.98985 21.2532 8.78003 21.3405 8.5612 21.3407Z" fill="#111111"/>
<path d="M19.3299 7.64401C19.2849 7.63633 19.2393 7.63252 19.1937 7.63263H5.9867C5.76778 7.63263 5.55782 7.71985 5.40302 7.8751C5.24823 8.03035 5.16126 8.24092 5.16126 8.46047C5.16126 8.68003 5.24823 8.8906 5.40302 9.04585C5.55782 9.2011 5.76778 9.28832 5.9867 9.28832H18.2192L18.001 10.6015L16.8438 17.5668H6.07595L3.26946 10.6015L1.59537 6.48296C1.50684 6.28921 1.34721 6.13717 1.14972 6.05849C0.952225 5.9798 0.732083 5.98054 0.535118 6.06054C0.338153 6.14054 0.179541 6.29365 0.0922992 6.48798C0.00505767 6.68232 -0.00409102 6.90291 0.0667575 7.10384L2.73963 13.6816L4.56385 18.5307C4.6985 18.9389 4.97657 19.2224 5.37794 19.2224H17.5428C17.7383 19.2225 17.9275 19.1531 18.0766 19.0264C18.2258 18.8997 18.3253 18.724 18.3574 18.5307L19.675 10.6015L20.0083 8.59655C20.0443 8.38002 19.993 8.15803 19.8658 7.9794C19.7386 7.80077 19.5458 7.68013 19.3299 7.64401Z" fill="#111111"/>
<circle cx="22" cy="9" r="9" fill="#DD7733"/>
<path d="M19.3533 12L22.6633 8.47C22.8167 8.30333 22.9467 8.14 23.0533 7.98C23.1667 7.81333 23.25 7.64667 23.3033 7.48C23.3633 7.30667 23.3933 7.12667 23.3933 6.94C23.3933 6.78667 23.3633 6.63667 23.3033 6.49C23.2433 6.34333 23.1533 6.21 23.0333 6.09C22.92 5.97 22.78 5.87333 22.6133 5.8C22.4467 5.72667 22.2567 5.69 22.0433 5.69C21.7433 5.69 21.4833 5.76 21.2633 5.9C21.05 6.03333 20.8867 6.23 20.7733 6.49C20.66 6.74333 20.6033 7.04667 20.6033 7.4H19.7533C19.7533 6.9 19.8433 6.46333 20.0233 6.09C20.2033 5.71 20.4633 5.41667 20.8033 5.21C21.15 4.99667 21.5633 4.89 22.0433 4.89C22.43 4.89 22.7633 4.95667 23.0433 5.09C23.3233 5.21667 23.5533 5.38333 23.7333 5.59C23.9133 5.79 24.0467 6.00667 24.1333 6.24C24.22 6.47333 24.2633 6.69667 24.2633 6.91C24.2633 7.27 24.1767 7.62667 24.0033 7.98C23.83 8.33333 23.6067 8.65 23.3333 8.93L21.1033 11.2H24.2933V12H19.3533Z" fill="white"/>
</svg>