<svg width="24" height="24" viewBox="0 0 24 24" fill="none" xmlns="http://www.w3.org/2000/svg">
<path d="M3 14H21C21.2812 14 21.5156 13.9062 21.7031 13.7188C21.9062 13.5156 22.0078 13.2734 22.0078 12.9922C22.0078 12.7266 21.9062 12.5 21.7031 12.3125C21.5156 12.1094 21.2812 12.0078 21 12.0078H3C2.71875 12.0078 2.47656 12.1094 2.27344 12.3125C2.08594 12.5 1.99219 12.7266 1.99219 12.9922C1.99219 13.2734 2.08594 13.5156 2.27344 13.7188C2.47656 13.9062 2.71875 14 3 14ZM3 8H21C21.2812 8 21.5156 7.90625 21.7031 7.71875C21.9062 7.51563 22.0078 7.27344 22.0078 6.99219C22.0078 6.72656 21.9062 6.5 21.7031 6.3125C21.5156 6.10938 21.2812 6.00781 21 6.00781H3C2.71875 6.00781 2.47656 6.10938 2.27344 6.3125C2.08594 6.5 1.99219 6.72656 1.99219 6.99219C1.99219 7.27344 2.08594 7.51563 2.27344 7.71875C2.47656 7.90625 2.71875 8 3 8ZM3 20H21C21.2812 20 21.5156 19.9062 21.7031 19.7188C21.9062 19.5156 22.0078 19.2734 22.0078 18.9922C22.0078 18.7266 21.9062 18.5 21.7031 18.3125C21.5156 18.1094 21.2812 18.0078 21 18.0078H3C2.71875 18.0078 2.47656 18.1094 2.27344 18.3125C2.08594 18.5 1.99219 18.7266 1.99219 18.9922C1.99219 19.2734 2.08594 19.5156 2.27344 19.7188C2.47656 19.9062 2.71875 20 3 20Z" fill="#111111"/>
</svg>
