<svg width="10" height="5" viewBox="0 0 10 5" fill="none" xmlns="http://www.w3.org/2000/svg">
<path d="M1.08984 1.32227C0.971354 1.21289 0.912109 1.08073 0.912109 0.925781C0.912109 0.761719 0.971354 0.620443 1.08984 0.501953C1.19922 0.392578 1.33594 0.337891 1.5 0.337891C1.66406 0.337891 1.80078 0.392578 1.91016 0.501953L5 3.5918L8.08984 0.501953C8.19922 0.392578 8.33594 0.337891 8.5 0.337891C8.66406 0.337891 8.80078 0.392578 8.91016 0.501953C9.02865 0.620443 9.08789 0.761719 9.08789 0.925781C9.08789 1.08073 9.02865 1.21289 8.91016 1.32227L5.41016 4.82227C5.30078 4.94076 5.16406 5 5 5C4.83594 5 4.69922 4.94076 4.58984 4.82227L1.08984 1.32227Z" fill="#555555"/>
</svg>
