<svg width="92" height="20" viewBox="0 0 92 20" fill="none" xmlns="http://www.w3.org/2000/svg">
<path d="M11.7589 1.22502V11.5418C11.7828 12.1366 11.6692 12.7288 11.4271 13.2723C11.2348 13.6985 10.9516 14.0772 10.5974 14.3816C10.2896 14.6292 9.93633 14.8139 9.55764 14.9252C8.89595 15.139 8.184 15.139 7.52231 14.9252C7.12213 14.8171 6.74654 14.6326 6.41615 14.3816C6.05874 14.0776 5.77183 13.6991 5.57546 13.2723C5.34294 12.7261 5.23341 12.1353 5.25468 11.5418V0.00476074H0.000413445V11.5418C-0.0106251 12.7278 0.199465 13.9054 0.619864 15.014C1.00606 16.0111 1.59355 16.9176 2.34547 17.6763C3.11709 18.4276 4.03629 19.0094 5.04451 19.3847C6.16345 19.7955 7.34861 19.9949 8.53998 19.9727C9.73203 19.9913 10.9172 19.7882 12.0354 19.3736C13.0437 18.9983 13.9629 18.4165 14.7345 17.6653C15.4878 16.9098 16.0723 16.0022 16.449 15.0029C16.8605 13.8922 17.0667 12.7155 17.0574 11.5307V1.22502V0.00476074H11.7589V1.22502Z" fill="#111111"/>
<path d="M36.1158 0.00512695H35.9941L30.4633 8.77991C30.4633 8.77991 24.7555 0.00512695 24.7224 0.00512695H19.3132V19.973H24.7224V9.55643L30.4302 17.6434L35.961 9.55643V19.973H41.3811V18.7528V1.22539V0.00512695H36.1158Z" fill="#111111"/>
<path d="M43.6594 1.22539V10.1998V18.7639V19.3185V19.9841H44.2899H48.3053H48.9469V19.3407V10.1998L48.9579 1.22539V0.00512695H43.6594V1.22539Z" fill="#111111"/>
<path d="M91.2025 6.11735C90.6984 4.93333 89.9738 3.85655 89.0676 2.94468C88.1567 2.03499 87.0836 1.30496 85.904 0.792583C84.6799 0.269587 83.363 0 82.0324 0C80.7019 0 79.385 0.269587 78.1609 0.792583C76.9801 1.29677 75.9091 2.02788 75.0083 2.94468C74.1135 3.86131 73.397 4.93727 72.8955 6.11735C72.374 7.34498 72.1052 8.66561 72.1052 10C72.1052 11.3344 72.374 12.655 72.8955 13.8826C73.4036 15.0645 74.1277 16.1406 75.0304 17.0553C75.9312 17.9721 77.0022 18.7032 78.183 19.2074C79.4071 19.7304 80.724 20 82.0546 20C83.3851 20 84.702 19.7304 85.9261 19.2074C87.1057 18.695 88.1789 17.965 89.0897 17.0553C89.996 16.1434 90.7205 15.0667 91.2246 13.8826C91.7538 12.6541 92.0176 11.3271 91.9989 9.98891C92.0062 8.65675 91.7349 7.33785 91.2025 6.11735ZM86.4239 11.8859C86.1843 12.4726 85.8394 13.0103 85.4062 13.4722C84.9702 13.9335 84.4526 14.3097 83.8797 14.5815C83.3064 14.8557 82.6786 14.996 82.0435 14.992C81.4048 14.9962 80.7734 14.8559 80.1962 14.5815C79.6283 14.3121 79.1176 13.9355 78.6918 13.4722C78.2622 13.0097 77.921 12.472 77.6852 11.8859C77.4323 11.2858 77.3043 10.6403 77.3091 9.98891C77.3204 8.70203 77.814 7.46649 78.6918 6.52781C79.1201 6.06736 79.6303 5.69114 80.1962 5.41848C80.7734 5.14412 81.4048 5.00382 82.0435 5.00803C82.6786 5.00396 83.3064 5.14429 83.8797 5.41848C84.4507 5.69357 84.9678 6.06931 85.4062 6.52781C85.8439 6.98192 86.1895 7.51689 86.4239 8.10305C86.6684 8.70177 86.796 9.34195 86.8 9.98891C86.7991 10.6398 86.6714 11.2842 86.4239 11.8859Z" fill="#111111"/>
<path d="M65.2634 0.00512695H64.5886V0.681817V1.22539V5.28553H69.854V1.22539V0.681817V0.00512695H69.2456H65.2634Z" fill="#111111"/>
<path d="M56.6238 0.00512695H55.949H51.8894H51.8784H51.2036V0.681817V1.22539V5.28553V18.7639V19.3074V19.9841H51.8894H55.949H56.6238V19.3074V18.7639V8.41383L64.5882 19.9841H69.1787H69.8535V19.3074V18.7639V17.8098L60.2631 5.28553L56.6238 0.00512695Z" fill="#111111"/>
</svg>
