<svg width="11" height="10" viewBox="0 0 11 10" fill="none" xmlns="http://www.w3.org/2000/svg">
<path d="M10.9556 3.78143C10.9881 3.88335 10.9914 3.98868 10.9654 4.0974C10.9393 4.20612 10.884 4.29785 10.7993 4.37259L8.62161 6.37033L9.26614 9.32616C9.28567 9.43488 9.27591 9.5402 9.23684 9.64213C9.20429 9.74405 9.1457 9.82899 9.06106 9.89694C8.96992 9.96489 8.87226 9.99887 8.76809 9.99887C8.66393 10.0057 8.56627 9.98188 8.47512 9.92752L5.98489 8.36806L3.49466 9.92752C3.45559 9.94791 3.41002 9.96489 3.35794 9.97848C3.31236 9.99207 3.26679 9.99887 3.22122 9.99887C3.16914 9.99887 3.1138 9.98868 3.0552 9.96829C3.00312 9.9547 2.95429 9.93092 2.90872 9.89694C2.82408 9.82899 2.76223 9.74405 2.72317 9.64213C2.69062 9.5402 2.68411 9.43488 2.70364 9.32616L3.34817 6.37033L1.17044 4.37259C1.0858 4.29785 1.03046 4.20612 1.00442 4.0974C0.97838 3.98868 0.981635 3.88335 1.01419 3.78143C1.04674 3.67271 1.10208 3.58437 1.1802 3.51642C1.26484 3.44847 1.35924 3.4077 1.46341 3.39411L4.35403 3.12911L5.49661 0.336353C5.53567 0.234428 5.60078 0.152888 5.69192 0.0917327C5.78307 0.0305776 5.88072 0 5.98489 0C6.08906 0 6.18671 0.0305776 6.27786 0.0917327C6.36901 0.152888 6.43411 0.234428 6.47317 0.336353L7.61575 3.12911L10.5064 3.39411C10.6105 3.4077 10.7017 3.44847 10.7798 3.51642C10.8644 3.58437 10.923 3.67271 10.9556 3.78143Z" fill="#111111"/>
</svg>
