<svg width="11" height="10" viewBox="0 0 11 10" fill="none" xmlns="http://www.w3.org/2000/svg">
<path d="M8.75018 9.99886C8.8551 10.0006 8.95727 9.96365 9.03888 9.89449C9.12535 9.83625 9.18896 9.74734 9.21807 9.64399C9.24741 9.54189 9.24741 9.43298 9.21807 9.33088L8.60085 6.36671L10.7711 4.3732C10.8609 4.30709 10.9274 4.21168 10.9602 4.10183C10.9851 3.99556 10.9851 3.88455 10.9602 3.77828C10.9316 3.6719 10.8682 3.57951 10.781 3.51734C10.704 3.45067 10.611 3.40736 10.5122 3.3921L7.60534 3.13117L6.47046 0.333991C6.42954 0.234198 6.35994 0.150279 6.27136 0.093935C6.18619 0.0332073 6.08567 0.000500933 5.98267 0V8.34978L8.46148 9.9258C8.54838 9.98039 8.6491 10.0059 8.75018 9.99886Z" fill="#C8C8C8"/>
<path d="M3.21125 9.99886C3.10632 10.0006 3.00415 9.96365 2.92255 9.89449C2.83607 9.83625 2.77247 9.74734 2.74336 9.64399C2.71402 9.54189 2.71402 9.43298 2.74336 9.33088L3.36057 6.36671L1.19036 4.3732C1.1005 4.30709 1.034 4.21168 1.00122 4.10183C0.976328 3.99556 0.976328 3.88455 1.00122 3.77828C1.02981 3.6719 1.09326 3.57951 1.18041 3.51734C1.25743 3.45067 1.35038 3.40736 1.4492 3.3921L4.35608 3.13117L5.49096 0.333991C5.53188 0.234198 5.60148 0.150279 5.69006 0.093935C5.77524 0.0332073 5.87576 0.000500933 5.97876 0V8.34978L3.49994 9.9258C3.41304 9.98039 3.31233 10.0059 3.21125 9.99886Z" fill="#111111"/>
</svg>
