<svg width="31" height="23" viewBox="0 0 31 23" fill="none" xmlns="http://www.w3.org/2000/svg">
<path d="M18.3887 7.55421C17.3506 6.55606 15.9769 6 14.5491 6C13.1212 6 11.7475 6.55606 10.7094 7.55421L10 8.24289L9.29063 7.55421C8.25514 6.54929 6.87729 5.99234 5.44682 6.00047C4.01902 5.99364 2.64421 6.55056 1.61125 7.55421C1.10276 8.0382 0.697356 8.6234 0.420188 9.27353C0.14302 9.92365 0 10.6248 0 11.3336C0 12.0423 0.14302 12.7435 0.420188 13.3936C0.697356 14.0437 1.10276 14.6289 1.61125 15.1129L9.4391 22.7724C9.51585 22.8408 9.60199 22.8974 9.6948 22.9404C9.89078 23.0199 10.1092 23.0199 10.3052 22.9404C10.398 22.8974 10.4841 22.8408 10.5609 22.7724L18.3887 15.1129C18.8972 14.6289 19.3026 14.0437 19.5798 13.3936C19.857 12.7435 20 12.0423 20 11.3336C20 10.6248 19.857 9.92365 19.5798 9.27353C19.3026 8.6234 18.8972 8.0382 18.3887 7.55421ZM18.3887 11.3168C18.3911 11.8136 18.2943 12.3058 18.1043 12.7634C17.9143 13.221 17.6351 13.6346 17.2834 13.9791L10 21.1179L2.7248 13.9791C2.36775 13.6375 2.08319 13.225 1.88868 12.7671C1.69417 12.3092 1.59382 11.8156 1.59382 11.3168C1.59382 10.8179 1.69417 10.3243 1.88868 9.86641C2.08319 9.40852 2.36775 8.99605 2.7248 8.65442C3.45741 7.94171 4.43359 7.54714 5.44682 7.55421C6.46509 7.5463 7.44671 7.94068 8.18532 8.65442L9.4391 9.88901C9.51585 9.95737 9.60199 10.014 9.6948 10.057C9.89078 10.1365 10.1092 10.1365 10.3052 10.057C10.398 10.014 10.4841 9.95737 10.5609 9.88901L11.8229 8.65442C12.5555 7.94171 13.5317 7.54714 14.5449 7.55421C15.5632 7.5463 16.5448 7.94068 17.2834 8.65442C17.6381 8.99747 17.9204 9.41042 18.1133 9.86813C18.3061 10.3258 18.4055 10.8187 18.4052 11.3168H18.3887Z" fill="#111111"/>
<circle cx="22.0039" cy="9" r="9" fill="#D73F0F"/>
<path d="M19.3572 12L22.6672 8.47C22.8206 8.30333 22.9506 8.14 23.0572 7.98C23.1706 7.81333 23.2539 7.64667 23.3072 7.48C23.3672 7.30667 23.3972 7.12667 23.3972 6.94C23.3972 6.78667 23.3672 6.63667 23.3072 6.49C23.2472 6.34333 23.1572 6.21 23.0372 6.09C22.9239 5.97 22.7839 5.87333 22.6172 5.8C22.4506 5.72667 22.2606 5.69 22.0472 5.69C21.7472 5.69 21.4872 5.76 21.2672 5.9C21.0539 6.03333 20.8906 6.23 20.7772 6.49C20.6639 6.74333 20.6072 7.04667 20.6072 7.4H19.7572C19.7572 6.9 19.8472 6.46333 20.0272 6.09C20.2072 5.71 20.4672 5.41667 20.8072 5.21C21.1539 4.99667 21.5672 4.89 22.0472 4.89C22.4339 4.89 22.7672 4.95667 23.0472 5.09C23.3272 5.21667 23.5572 5.38333 23.7372 5.59C23.9172 5.79 24.0506 6.00667 24.1372 6.24C24.2239 6.47333 24.2672 6.69667 24.2672 6.91C24.2672 7.27 24.1806 7.62667 24.0072 7.98C23.8339 8.33333 23.6106 8.65 23.3372 8.93L21.1072 11.2H24.2972V12H19.3572Z" fill="white"/>
</svg>
